<svg width="75" height="75" viewBox="0 0 75 75" fill="none" xmlns="http://www.w3.org/2000/svg">
<g clip-path="url(#clip0_0_321)">
<path d="M73.5578 37.4999C73.5578 59.1345 57.7285 73.5576 38.1997 73.5576C22.3271 73.5576 9.51937 65.1381 5.04821 51.923M1.44244 37.4999C1.44244 15.8653 17.2718 1.44223 36.8006 1.44223C52.6768 1.44223 65.4809 9.8617 69.952 23.0768" stroke="#0C2836" stroke-width="2" stroke-linecap="round" stroke-linejoin="round"/>
<path d="M12.8367 55.2997L5.19247 51.8382L2.45209 59.9151M72.9809 15.492L70.529 23.569L62.5963 20.1074" stroke="#0C2836" stroke-width="2" stroke-linecap="round" stroke-linejoin="round"/>
<path fill-rule="evenodd" clip-rule="evenodd" d="M38.0771 12.1538C39.3769 12.1538 40.6582 12.2501 41.9062 12.4352L43.7875 18.1345C45.4354 18.6048 47.0019 19.2751 48.4536 20.1195L53.8603 17.5124C55.7749 18.9826 57.4784 20.7157 58.9152 22.6562L56.2119 28.0148C57.0303 29.4813 57.6746 31.0588 58.1153 32.7179L63.7813 34.6917C64.0935 37.0877 64.0723 39.5154 63.7183 41.9056L58.019 43.7869C57.5519 45.418 56.8852 46.9852 56.0341 48.453L58.6412 53.8597C57.169 55.7748 55.4379 57.476 53.4974 58.9146L48.1388 56.2113C46.6564 57.039 45.0765 57.6785 43.4357 58.1147L41.4618 63.7807C39.0658 64.0929 36.6381 64.0717 34.2479 63.7177L32.3667 58.0184C30.7356 57.5513 29.1683 56.8846 27.7006 56.0335L22.2939 58.6406C20.3788 57.1684 18.6775 55.4373 17.2389 53.4968L19.9423 48.1382C19.1165 46.6549 18.4772 45.0752 18.0388 43.4351L12.3729 41.4575C12.061 39.0627 12.0822 36.6363 12.4358 34.2473L18.1351 32.3661C18.6054 30.7181 19.2757 29.1517 20.1201 27.7L17.513 22.2933C18.9851 20.3782 20.7163 18.6769 22.6568 17.2383L28.0154 19.9417C29.4977 19.1139 31.0777 18.4745 32.7185 18.0382L34.696 12.3723C35.8171 12.2264 36.9465 12.1534 38.0771 12.1538Z" stroke="#0C2836" stroke-width="2" stroke-linecap="round" stroke-linejoin="round"/>
<path d="M38.0768 49.1861C44.2125 49.1861 49.1865 44.2121 49.1865 38.0764C49.1865 31.9406 44.2125 26.9666 38.0768 26.9666C31.941 26.9666 26.967 31.9406 26.967 38.0764C26.967 44.2121 31.941 49.1861 38.0768 49.1861Z" stroke="#0C2836" stroke-width="2" stroke-linecap="round" stroke-linejoin="round"/>
<path d="M34 38L37 41L42 36" stroke="#0C2836" stroke-width="2" stroke-linecap="round" stroke-linejoin="round"/>
</g>
<defs>
<clipPath id="clip0_0_321">
<rect width="75" height="75" fill="white"/>
</clipPath>
</defs>
</svg>
