<svg width="82" height="79" viewBox="0 0 82 79" fill="none" xmlns="http://www.w3.org/2000/svg">
<g clip-path="url(#clip0_37_71)">
<path d="M80.4324 31.348L80.3224 31.056L69.2138 2.21389C68.989 1.64757 68.5889 1.16716 68.0715 0.842199C67.6854 0.596216 67.2469 0.443677 66.7909 0.396803C66.335 0.34993 65.8744 0.410028 65.4459 0.57228C65.0175 0.734532 64.6333 0.994426 64.324 1.33113C64.0146 1.66783 63.7889 2.07198 63.6647 2.51118L56.1665 25.3606H25.8012L18.3029 2.51118C18.1779 2.07264 17.9516 1.66925 17.6421 1.33319C17.3326 0.997132 16.9485 0.737699 16.5205 0.575579C16.0924 0.413459 15.6322 0.353139 15.1766 0.399429C14.721 0.44572 14.2825 0.59734 13.8962 0.842199C13.3788 1.16716 12.9787 1.64757 12.7539 2.21389L1.65053 31.0612L1.53526 31.348C-0.0633 35.5064 -0.260236 40.0694 0.974136 44.349C2.20851 48.6285 4.80727 52.3926 8.37857 55.0737L8.42049 55.1049L8.51481 55.178L25.4135 67.784L33.7973 74.0896L38.8905 77.9231C39.4881 78.3724 40.2166 78.6154 40.9655 78.6154C41.7144 78.6154 42.4429 78.3724 43.0405 77.9231L48.1337 74.0896L56.5175 67.784L73.5367 55.1049L73.5839 55.0684C77.155 52.3884 79.7541 48.6255 80.9893 44.347C82.2246 40.0686 82.0292 35.5063 80.4324 31.348Z" fill="#E24329"/>
<path d="M80.4323 31.348L80.3223 31.056C74.9099 32.1614 69.8102 34.4448 65.3886 37.7423L40.9968 56.1011L56.5279 67.784L73.5471 55.1049L73.5942 55.0684C77.1635 52.387 79.7605 48.6235 80.9939 44.3451C82.2272 40.0667 82.0301 35.5052 80.4323 31.348Z" fill="#FC6D26"/>
<path d="M25.4136 67.784L33.7974 74.0896L38.8906 77.9231C39.4882 78.3724 40.2167 78.6155 40.9656 78.6155C41.7145 78.6155 42.443 78.3724 43.0406 77.9231L48.1338 74.0896L56.5176 67.784L40.9866 56.1011L25.4136 67.784Z" fill="#FCA326"/>
<path d="M16.579 37.7424C12.1589 34.4464 7.06092 32.1649 1.65053 31.0612L1.53526 31.3481C-0.0633 35.5065 -0.260236 40.0695 0.974135 44.349C2.20851 48.6285 4.80727 52.3926 8.37857 55.0737L8.42049 55.105L8.5148 55.178L25.4135 67.784L40.955 56.1011L16.579 37.7424Z" fill="#FC6D26"/>
</g>
<defs>
<clipPath id="clip0_37_71">
<rect width="82" height="79" fill="white"/>
</clipPath>
</defs>
</svg>
