<svg width="75" height="75" viewBox="0 0 75 75" fill="none" xmlns="http://www.w3.org/2000/svg">
<g clip-path="url(#clip0_0_331)">
<circle cx="37.5" cy="37.5" r="36.25" stroke="#0C2836" stroke-width="2.5"/>
<path d="M28.85 22.425C28.85 24.129 28.1731 25.7633 26.9682 26.9682C25.7633 28.1731 24.129 28.85 22.425 28.85C20.721 28.85 19.0868 28.1731 17.8818 26.9682C16.6769 25.7633 16 24.129 16 22.425C16 20.721 16.6769 19.0868 17.8818 17.8818C19.0868 16.6769 20.721 16 22.425 16C24.129 16 25.7633 16.6769 26.9682 17.8818C28.1731 19.0868 28.85 20.721 28.85 22.425ZM58.8335 22.425C58.8335 24.129 58.1566 25.7633 56.9516 26.9682C55.7467 28.1731 54.1125 28.85 52.4085 28.85C50.7044 28.85 49.0702 28.1731 47.8653 26.9682C46.6604 25.7633 45.9834 24.129 45.9834 22.425C45.9834 20.721 46.6604 19.0868 47.8653 17.8818C49.0702 16.6769 50.7044 16 52.4085 16C54.1125 16 55.7467 16.6769 56.9516 17.8818C58.1566 19.0868 58.8335 20.721 58.8335 22.425ZM28.85 52.4085C28.85 54.1125 28.1731 55.7467 26.9682 56.9516C25.7633 58.1566 24.129 58.8335 22.425 58.8335C20.721 58.8335 19.0868 58.1566 17.8818 56.9516C16.6769 55.7467 16 54.1125 16 52.4085C16 50.7044 16.6769 49.0702 17.8818 47.8653C19.0868 46.6604 20.721 45.9834 22.425 45.9834C24.129 45.9834 25.7633 46.6604 26.9682 47.8653C28.1731 49.0702 28.85 50.7044 28.85 52.4085ZM58.8335 52.4085C58.8335 54.1125 58.1566 55.7467 56.9516 56.9516C55.7467 58.1566 54.1125 58.8335 52.4085 58.8335C50.7044 58.8335 49.0702 58.1566 47.8653 56.9516C46.6604 55.7467 45.9834 54.1125 45.9834 52.4085C45.9834 50.7044 46.6604 49.0702 47.8653 47.8653C49.0702 46.6604 50.7044 45.9834 52.4085 45.9834C54.1125 45.9834 55.7467 46.6604 56.9516 47.8653C58.1566 49.0702 58.8335 50.7044 58.8335 52.4085Z" stroke="#0C2836" stroke-width="2"/>
<path d="M28.8501 22.425H45.9835M52.4085 45.9834V39.5584M52.4085 28.8501V30.9917M45.9835 52.4085H39.5584M33.1334 52.4085H28.8501M22.425 45.9834V28.8501" stroke="#0C2836" stroke-width="2" stroke-linecap="round"/>
</g>
<defs>
<clipPath id="clip0_0_331">
<rect width="75" height="75" fill="white"/>
</clipPath>
</defs>
</svg>
