<svg width="75" height="75" viewBox="0 0 75 75" fill="none" xmlns="http://www.w3.org/2000/svg">
<g clip-path="url(#clip0_0_312)">
<circle cx="37.5" cy="37.5" r="36.5" stroke="#0C2836" stroke-width="2"/>
<path d="M27 47C27 49.7614 24.7614 52 22 52C19.2386 52 17 49.7614 17 47C17 44.2386 19.2386 42 22 42C24.7614 42 27 44.2386 27 47Z" stroke="#0C2836" stroke-width="2"/>
<path d="M38 24V28.5M38 28.5L45.5 33V42M38 28.5L30.5 33V42M45.5 42L38 46.5L30.5 42M45.5 42L49.5 44M30.5 42L26.5 44" stroke="#0C2836" stroke-width="2"/>
<path d="M59 47C59 49.7614 56.7614 52 54 52C51.2386 52 49 49.7614 49 47C49 44.2386 51.2386 42 54 42C56.7614 42 59 44.2386 59 47Z" stroke="#0C2836" stroke-width="2"/>
<path d="M43 18.5001C43 21.2615 40.7614 23.5001 38 23.5001C35.2386 23.5001 33 21.2615 33 18.5001C33 15.7386 35.2386 13.5001 38 13.5001C40.7614 13.5001 43 15.7386 43 18.5001Z" stroke="#0C2836" stroke-width="2"/>
</g>
<defs>
<clipPath id="clip0_0_312">
<rect width="75" height="75" fill="white"/>
</clipPath>
</defs>
</svg>
